<?xml version="1.0" standalone="no"?>
<!DOCTYPE svg PUBLIC "-//W3C//DTD SVG 20010904//EN"
 "http://www.w3.org/TR/2001/REC-SVG-20010904/DTD/svg10.dtd">
<svg version="1.0" xmlns="http://www.w3.org/2000/svg"
 width="1161.000000pt" height="504.000000pt" viewBox="0 0 1161.000000 504.000000"
 preserveAspectRatio="xMidYMid meet">

<g transform="translate(0.000000,504.000000) scale(0.100000,-0.100000)"
fill="#ffffff" stroke="none">
<path d="M1015 5029 c-164 -22 -347 -89 -482 -178 -274 -181 -454 -454 -514
-781 -17 -94 -14 -309 5 -403 30 -139 98 -313 149 -382 15 -19 16 -18 33 25
69 174 213 416 352 590 311 388 772 688 1251 811 63 16 116 31 118 33 6 5
-149 116 -213 152 -80 45 -226 97 -329 119 -98 20 -277 27 -370 14z"/>
<path d="M3535 5029 c-199 -26 -427 -122 -573 -244 l-53 -44 38 -10 c21 -5 66
-17 100 -25 183 -47 444 -160 623 -271 297 -185 557 -438 753 -735 66 -100
217 -390 217 -416 0 -39 24 -13 68 73 191 376 169 800 -59 1153 -238 368 -680
574 -1114 519z"/>
<path d="M2215 4610 c-445 -47 -844 -209 -1185 -480 -118 -94 -301 -285 -394
-409 -286 -386 -436 -837 -436 -1318 0 -506 147 -945 453 -1353 69 -92 258
-290 345 -362 l42 -35 -162 -183 c-90 -100 -171 -196 -180 -213 -21 -39 -23
-106 -4 -150 37 -90 172 -135 251 -83 21 14 165 170 342 370 l52 59 58 -31
c135 -71 394 -164 549 -196 356 -74 698 -66 1040 24 145 38 252 78 398 148
103 49 120 54 130 41 6 -9 89 -104 185 -212 181 -204 210 -227 283 -227 78 0
159 70 173 151 14 74 -5 104 -186 308 -165 186 -171 194 -153 210 11 10 57 51
103 92 112 99 256 268 353 413 375 567 468 1277 252 1925 -266 795 -949 1368
-1784 1495 -125 20 -413 28 -525 16z m475 -506 c52 -8 139 -26 193 -41 78 -21
95 -29 85 -38 -11 -10 -1477 -858 -1545 -894 l-23 -12 0 340 0 339 78 50 c363
233 788 323 1212 256z m509 -163 c427 -215 760 -624 887 -1088 14 -51 24 -100
22 -107 -2 -8 -292 154 -785 438 -430 248 -781 455 -780 459 2 6 564 336 575
337 1 0 38 -18 81 -39z m-1909 -1155 l0 -915 -147 86 c-82 47 -214 123 -295
170 l-147 84 -7 46 c-12 81 3 350 26 467 53 270 165 513 339 741 53 69 210
235 222 235 5 0 9 -412 9 -914z m2582 -45 l266 -154 7 -98 c19 -271 -49 -600
-179 -860 -92 -183 -196 -326 -345 -474 l-81 -80 0 928 0 927 33 -17 c19 -10
153 -87 299 -172z m-2327 -1143 c391 -226 722 -418 737 -427 l27 -17 -289
-167 c-159 -92 -297 -167 -306 -167 -23 0 -170 80 -262 142 -346 233 -598 590
-707 998 -14 52 -25 99 -25 103 0 11 -32 29 825 -465z m1885 -267 l0 -339 -81
-52 c-178 -114 -389 -199 -601 -242 -99 -20 -142 -23 -338 -22 -237 0 -322 11
-495 65 l-67 20 784 454 c431 249 786 454 791 454 4 1 7 -152 7 -338z"/>
<path d="M6490 3685 l0 -95 215 0 215 0 0 -485 0 -485 95 0 95 0 0 485 0 485
215 0 215 0 0 95 0 95 -525 0 -525 0 0 -95z"/>
<path d="M8067 3773 c-4 -3 -7 -264 -7 -580 l0 -573 100 0 100 0 0 580 0 580
-93 0 c-52 0 -97 -3 -100 -7z"/>
<path d="M8917 3773 c-4 -3 -7 -264 -7 -580 l0 -573 100 0 100 0 2 405 3 405
201 -194 201 -195 202 195 201 196 0 -406 0 -406 100 0 100 0 -2 578 -3 577
-51 3 -51 3 -246 -241 c-136 -132 -250 -240 -253 -240 -3 0 -117 108 -252 240
l-247 240 -46 0 c-25 0 -49 -3 -52 -7z"/>
<path d="M10770 3200 l0 -580 370 0 370 0 0 90 0 90 -270 0 -270 0 0 185 0
185 160 0 160 0 0 90 0 90 -160 0 -160 0 0 120 0 120 245 0 245 0 0 95 0 95
-345 0 -345 0 0 -580z"/>
<path d="M6803 2265 c-110 -31 -174 -76 -216 -153 -39 -71 -51 -149 -37 -230
14 -82 37 -126 92 -178 58 -55 79 -67 210 -120 191 -78 221 -102 204 -169 -23
-92 -237 -85 -435 14 l-81 40 0 -134 0 -135 58 -29 c204 -103 455 -108 600
-11 98 65 141 146 150 276 8 141 -35 231 -146 303 -26 17 -109 56 -183 87
-153 65 -179 83 -179 131 0 48 33 66 123 66 89 -1 179 -24 270 -69 38 -19 71
-34 73 -34 3 0 3 60 2 133 l-3 132 -55 27 c-30 15 -84 34 -120 44 -90 23 -260
28 -327 9z"/>
<path d="M9762 2178 c-107 -201 -552 -1056 -552 -1062 0 -3 69 -6 153 -6 l152
0 58 115 57 115 242 0 243 0 59 -115 59 -115 153 0 c85 0 154 3 154 7 0 3
-136 264 -302 580 l-303 573 -62 0 -62 0 -49 -92z m168 -468 c33 -66 60 -124
60 -130 0 -6 -46 -10 -121 -10 -70 0 -119 4 -117 9 7 21 113 251 115 251 2 0
30 -54 63 -120z"/>
<path d="M7740 1685 l0 -575 145 0 145 0 2 323 3 324 370 -324 369 -323 68 0
68 0 0 575 0 575 -145 0 -145 0 -2 -330 -3 -329 -367 329 -368 330 -70 0 -70
0 0 -575z"/>
<path d="M10840 1686 l0 -576 150 0 150 0 0 229 0 228 87 7 c219 18 343 112
372 282 30 169 -47 316 -195 375 -55 22 -74 24 -311 27 l-253 4 0 -576z m451
295 c27 -33 25 -93 -4 -126 -18 -22 -34 -27 -85 -32 l-62 -6 0 98 0 97 66 -4
c55 -3 70 -8 85 -27z"/>
</g>
</svg>
