
<svg version="1.0" xmlns="http://www.w3.org/2000/svg"
 width="1880.000000pt" height="1960.000000pt" viewBox="0 0 1880.000000 1960.000000"
 preserveAspectRatio="xMidYMid meet">

<g transform="translate(0.000000,1960.000000) scale(0.100000,-0.100000)"
fill="#000000" stroke="none">
<path d="M4200 19584 c-865 -61 -1687 -363 -2374 -872 -967 -716 -1611 -1797
-1776 -2981 -34 -245 -43 -417 -37 -730 6 -309 18 -441 63 -691 100 -555 290
-1050 604 -1574 l23 -38 15 38 c104 271 342 777 496 1056 1087 1972 2840 3489
4931 4268 372 138 804 268 1150 346 94 20 173 40 178 44 16 14 -286 252 -503
395 -608 402 -1248 635 -1980 721 -129 15 -658 27 -790 18z"/>
<path d="M14010 19583 c-232 -14 -558 -66 -805 -128 -517 -132 -965 -335
-1425 -646 -181 -123 -471 -353 -458 -364 1 -1 66 -17 143 -34 877 -198 1773
-549 2566 -1007 960 -554 1809 -1271 2539 -2144 262 -313 604 -796 818 -1155
249 -418 464 -847 637 -1274 l62 -153 58 93 c76 122 230 422 295 573 181 424
290 854 341 1351 19 179 16 665 -4 855 -48 436 -148 846 -299 1219 -576 1427
-1825 2455 -3333 2745 -151 29 -327 51 -509 66 -117 9 -491 11 -626 3z"/>
<path d="M8950 17949 c-1964 -105 -3765 -836 -5259 -2136 -301 -262 -739 -718
-1008 -1050 -1486 -1831 -2157 -4186 -1862 -6533 166 -1326 643 -2599 1392
-3714 469 -698 1029 -1316 1686 -1861 l142 -118 -29 -31 c-79 -84 -1194 -1339
-1237 -1391 -94 -116 -145 -264 -145 -425 0 -193 63 -343 200 -481 68 -69 102
-94 170 -127 115 -57 184 -73 310 -74 168 -1 302 44 430 146 30 23 370 396
755 828 l700 785 140 -74 c1660 -879 3535 -1195 5392 -908 937 145 1883 460
2712 904 l154 83 22 -24 c12 -13 331 -372 708 -798 378 -426 706 -790 731
-808 65 -49 174 -100 252 -118 88 -20 240 -20 326 0 136 32 287 127 371 234
100 128 149 269 149 432 0 154 -44 296 -127 404 -19 25 -314 361 -656 747
-341 385 -617 705 -612 709 4 4 64 54 133 111 425 350 883 813 1226 1239 1436
1785 2098 4018 1869 6305 -166 1651 -824 3244 -1876 4546 -348 430 -775 863
-1204 1219 -675 562 -1445 1023 -2265 1358 -1029 419 -2160 637 -3285 630
-143 0 -325 -4 -405 -9z m1055 -1913 c523 -52 1001 -151 1483 -308 109 -35
122 -41 106 -52 -11 -7 -1378 -797 -3039 -1756 -1661 -958 -3041 -1755 -3067
-1771 l-48 -29 0 1333 1 1332 112 77 c277 190 530 340 817 484 811 406 1656
637 2580 703 190 14 866 5 1055 -13z m2370 -671 c816 -405 1518 -950 2110
-1635 670 -776 1151 -1684 1421 -2685 33 -123 104 -439 99 -443 -4 -4 -6184
3561 -6184 3568 0 3 512 301 1137 662 891 514 1142 656 1162 652 14 -3 129
-57 255 -119z m-7345 -4511 c0 -2873 -3 -3595 -12 -3591 -13 5 -2321 1336
-2326 1342 -10 10 -33 358 -38 580 -23 909 153 1842 512 2713 72 176 252 545
351 720 330 587 719 1089 1224 1578 125 122 271 253 282 254 4 0 7 -1618 7
-3596z m9892 -110 c634 -366 1156 -669 1160 -673 33 -31 59 -799 39 -1121 -97
-1554 -690 -2981 -1714 -4125 -129 -145 -447 -462 -574 -574 l-73 -63 0 3611
c0 1986 2 3611 4 3611 2 0 523 -300 1158 -666z m-8999 -4484 c1681 -971 3057
-1767 3057 -1770 0 -11 -2298 -1330 -2316 -1330 -29 0 -502 240 -679 344
-1545 911 -2663 2393 -3119 4136 -34 127 -96 408 -96 430 0 6 22 -2 48 -17 27
-16 1424 -822 3105 -1793z m7417 -1070 l0 -1329 -52 -39 c-240 -176 -593 -386
-920 -547 -1322 -653 -2822 -852 -4269 -569 -228 44 -452 100 -659 163 -221
67 -270 84 -270 90 1 6 6150 3559 6163 3560 4 1 7 -597 7 -1329z"/>
</g>
</svg>
